<svg width="1277" height="740" viewBox="0 0 1277 740" fill="none" xmlns="http://www.w3.org/2000/svg">
<path d="M838.681 733.091C799.446 584.421 784.247 552.991 859.889 456.939C865.056 449.876 859.889 443.424 853.526 446.345C774.474 482.635 724.865 480.951 649.291 446.344C643.141 443.528 632.735 446.344 641.161 456.938C720.647 556.876 699.415 586.539 662.301 733.091C659.708 743.332 669.574 741.213 674.319 733.091C747.664 607.543 753.8 607.887 827.37 733.091C832.142 741.213 840.824 741.213 838.681 733.091Z" fill="#EC5242"/>
<path d="M802.981 409.971C802.981 439.226 779.243 462.941 749.961 462.941C720.679 462.941 696.941 439.226 696.941 409.971C696.941 380.716 720.679 357 749.961 357C779.243 357 802.981 380.716 802.981 409.971Z" fill="#EC5242"/>
<path d="M194 729C93.5 729 9.00001 658 9.00001 546.5C9.00001 435 94 364 194.5 364C246.5 364 305.5 383 342 446.5L278.5 490C260 462.5 231.5 447.5 196.5 447.5C143.5 447.5 99.5 484.5 99.5 546.5C99.5 609.5 144.5 645.5 197.5 645.5C233.5 645.5 260 630.5 278.5 602.5L342 646.5C305.5 710 246 729 194 729Z" fill="#272A31"/>
<path d="M375.816 724V369H462.316V494.5C477.316 473.5 501.816 459 536.316 459C588.816 459 632.816 491.5 632.816 571V724H546.316V586C546.316 559 533.316 535.5 503.816 535.5C474.816 535.5 462.316 559 462.316 586V724H375.816Z" fill="#272A31"/>
<path d="M875.816 724V369H962.316V724H875.816Z" fill="#272A31"/>
<path d="M1276.69 724H1190.19V699.5H1188.69C1186.69 704 1162.19 729 1116.69 729C1058.69 729 993.688 685 993.688 594C993.688 503 1058.69 459 1116.69 459C1162.19 459 1186.69 484 1188.69 488.5H1190.19V369H1276.69V724ZM1078.69 594C1078.69 630.5 1105.19 652.5 1135.19 652.5C1166.19 652.5 1192.19 631 1192.19 594C1192.19 557 1166.19 535.5 1135.19 535.5C1105.19 535.5 1078.69 557.5 1078.69 594Z" fill="#272A31"/>
<path d="M1069.6 4.25H1149.92L1263.83 306H1183.08L1168.2 263.075H1051.75L1036.88 306H955.7L1069.6 4.25ZM1075.55 194.65H1143.98L1109.55 96.05L1075.55 194.65Z" fill="#272A31"/>
<path d="M110.15 310.25C56.6 310.25 11.55 278.375 0.0750122 234.175L60.425 206.125C68.925 223.55 82.525 243.1 108.875 243.1C126.3 243.1 142.025 234.6 142.025 214.2C142.025 199.75 135.225 192.525 108.45 181.9L89.75 174.675C50.65 158.95 11.125 137.275 11.125 85.85C11.125 32.3 56.175 0 109.3 0C162.85 0 196 32.725 210.875 64.6L155.625 96.05C142.45 73.95 128 65.875 112.275 65.875C96.55 65.875 84.65 72.675 84.65 87.125C84.65 98.175 91.025 107.1 121.625 119L142.025 127.075C197.7 149.6 219.8 174.675 219.8 215.05C219.8 280.075 161.575 310.25 110.15 310.25Z" fill="#EC5242"/>
<path d="M331.867 310.25C282.567 310.25 227.317 272.85 227.317 195.5C227.317 118.15 282.567 80.75 331.867 80.75C370.542 80.75 391.367 102 393.067 105.825H394.342V85H467.867V306H394.342V285.175H393.067C391.367 289 370.542 310.25 331.867 310.25ZM299.567 195.5C299.567 226.525 322.092 245.225 347.592 245.225C373.942 245.225 396.042 226.95 396.042 195.5C396.042 164.05 373.942 145.775 347.592 145.775C322.092 145.775 299.567 164.475 299.567 195.5Z" fill="#EC5242"/>
<path d="M569.927 306L477.702 85H552.502L604.352 220.15L655.777 85H730.577L638.352 306H569.927Z" fill="#EC5242"/>
<path d="M838.53 310.25C776.48 310.25 721.23 268.6 721.23 195.925C721.23 121.125 777.33 80.75 834.705 80.75C890.805 80.75 958.38 119.425 943.08 223.975H793.055C801.98 241.825 821.105 250.75 846.605 250.75C864.455 250.75 880.605 247.35 896.755 236.3L929.055 270.725C911.205 293.25 880.18 310.25 838.53 310.25ZM790.505 172.125H878.48C873.38 151.3 854.255 141.95 835.555 141.95C816.855 141.95 798.155 151.3 790.505 172.125Z" fill="#EC5242"/>
</svg>
